<?xml version="1.0" encoding="utf-8"?>
<!-- Generator: Adobe Illustrator 23.0.2, SVG Export Plug-In . SVG Version: 6.00 Build 0)  -->
<svg version="1.1" id="Layer_1" xmlns="http://www.w3.org/2000/svg" xmlns:xlink="http://www.w3.org/1999/xlink" x="0px" y="0px"
	 viewBox="0 0 196 150" style="enable-background:new 0 0 196 150;" xml:space="preserve">
<style type="text/css">
	.st0{fill:#FFFFFF;}
</style>
<g>
	<g>
		<g>
			<path class="st0" d="M42.04,60.92c-0.22,0.04-0.45,0.09-0.67,0.15c-0.14,0.02-0.29,0.06-0.43,0.1c-0.26,0.06-0.51,0.13-0.77,0.2
				c-0.42,0.11-0.83,0.24-1.25,0.38c-0.28,0.09-0.56,0.19-0.83,0.29c-0.28,0.1-0.55,0.2-0.83,0.31c-0.18,0.06-0.35,0.13-0.53,0.21
				c-0.39,0.16-0.76,0.32-1.13,0.5c-0.27,0.12-0.54,0.25-0.8,0.39c-0.41,0.2-0.81,0.41-1.2,0.63c-1.6-0.9-3.29-1.65-5.05-2.24
				l2.59,3.8l9.43,13.86l1.73,2.55V60.86C42.21,60.88,42.12,60.9,42.04,60.92z M35.46,83.81l-9.26-13.8l-1.17-1.74v19.88
				c3.06-0.62,5.95-1.72,8.57-3.19c0.92,0.52,1.87,0.98,2.85,1.4c0.33,0.14,0.66,0.27,0.99,0.4L35.46,83.81z M42.04,60.92
				c-0.22,0.04-0.45,0.09-0.67,0.15c-0.14,0.02-0.29,0.06-0.43,0.1c-0.26,0.06-0.51,0.13-0.77,0.2c-0.42,0.11-0.83,0.24-1.25,0.38
				c-0.28,0.09-0.56,0.19-0.83,0.29c-0.28,0.1-0.55,0.2-0.83,0.31c-0.18,0.06-0.35,0.13-0.53,0.21c-0.39,0.16-0.76,0.32-1.13,0.5
				c-0.27,0.12-0.54,0.25-0.8,0.39c-0.41,0.2-0.81,0.41-1.2,0.63c-1.6-0.9-3.29-1.65-5.05-2.24l2.59,3.8l9.43,13.86l1.73,2.55V60.86
				C42.21,60.88,42.12,60.9,42.04,60.92z M26.2,70.01l-1.17-1.74v19.88c3.06-0.62,5.95-1.72,8.57-3.19c0.92,0.52,1.87,0.98,2.85,1.4
				c0.33,0.14,0.66,0.27,0.99,0.4l-1.98-2.95L26.2,70.01z M58.27,55.62l-12.61-7.08l-7.13-4c-3.05-1.72-6.81-1.72-9.86,0l-7.13,4
				L8.93,55.62C5.88,57.33,4,60.49,4,63.92v22.16c0,3.43,1.88,6.59,4.93,8.3l13.26,7.44l6.48,3.64c3.05,1.72,6.81,1.72,9.86,0
				l6.48-3.64l13.26-7.44c3.05-1.71,4.93-4.87,4.93-8.3V63.92C63.2,60.49,61.32,57.33,58.27,55.62z M49.27,89.03
				c0,1.81-0.44,3.11-1.32,3.9c-0.67,0.59-1.6,0.89-2.77,0.89c-0.68,0-1.29-0.09-1.83-0.28c-0.55-0.19-1.06-0.5-1.54-0.91
				c-0.47-0.41-0.92-0.9-1.33-1.45c-0.4-0.56-0.81-1.12-1.22-1.7l-1.82-2.72l-1.98-2.95l-9.26-13.8l-1.17-1.74V89.6
				c0,1.39-0.33,2.44-0.99,3.15c-0.67,0.72-1.52,1.07-2.56,1.07c-0.87,0-1.61-0.24-2.2-0.73c-0.14-0.1-0.26-0.22-0.38-0.35
				c-0.64-0.72-0.97-1.77-0.97-3.14V61.52c0-0.45,0.02-0.86,0.06-1.23c0.06-0.63,0.18-1.15,0.35-1.58c0.18-0.41,0.42-0.78,0.73-1.1
				c0.25-0.27,0.54-0.51,0.88-0.72c0.75-0.48,1.56-0.71,2.43-0.71c0.68,0,1.26,0.11,1.75,0.32c0.48,0.22,0.91,0.51,1.27,0.87
				c0.37,0.36,0.74,0.84,1.13,1.42c0.38,0.58,0.78,1.18,1.18,1.81l0.84,1.24l2.59,3.8l9.43,13.86l1.73,2.55V60.4
				c0-1.41,0.31-2.46,0.93-3.17c0.62-0.7,1.46-1.05,2.52-1.05c0.94,0,1.71,0.26,2.31,0.79c0.1,0.08,0.19,0.17,0.27,0.26
				c0.61,0.69,0.92,1.7,0.94,3.06V89.03z M35.46,83.81l-9.26-13.8l-1.17-1.74v19.88c3.06-0.62,5.95-1.72,8.57-3.19
				c0.92,0.52,1.87,0.98,2.85,1.4c0.33,0.14,0.66,0.27,0.99,0.4L35.46,83.81z M42.04,60.92c-0.22,0.04-0.45,0.09-0.67,0.15
				c-0.14,0.02-0.29,0.06-0.43,0.1c-0.26,0.06-0.51,0.13-0.77,0.2c-0.42,0.11-0.83,0.24-1.25,0.38c-0.28,0.09-0.56,0.19-0.83,0.29
				c-0.28,0.1-0.55,0.2-0.83,0.31c-0.18,0.06-0.35,0.13-0.53,0.21c-0.39,0.16-0.76,0.32-1.13,0.5c-0.27,0.12-0.54,0.25-0.8,0.39
				c-0.41,0.2-0.81,0.41-1.2,0.63c-1.6-0.9-3.29-1.65-5.05-2.24l2.59,3.8l9.43,13.86l1.73,2.55V60.86
				C42.21,60.88,42.12,60.9,42.04,60.92z"/>
		</g>
		<g>
			<path class="st0" d="M21.54,48.54c-1.31,2.81-2.17,5.87-2.47,9.07c-0.31,0.32-0.55,0.69-0.73,1.1c-0.17,0.43-0.29,0.95-0.35,1.58
				c-5.1,0.15-9.87,1.58-13.99,3.96v-0.33c0-3.43,1.88-6.59,4.93-8.3L21.54,48.54z"/>
		</g>
		<g>
			<path class="st0" d="M63.2,84.79v1.29c0,3.43-1.88,6.59-4.93,8.3l-13.26,7.44c0.18-0.34,0.36-0.69,0.52-1.04
				c0.25-0.52,0.49-1.06,0.7-1.6c0.1-0.22,0.18-0.44,0.26-0.67c0.01-0.02,0.02-0.05,0.03-0.07c0.11-0.3,0.22-0.6,0.32-0.91
				c0.06-0.19,0.12-0.37,0.18-0.56c0.06-0.18,0.12-0.37,0.17-0.56c0.01-0.04,0.02-0.09,0.04-0.13c0.07-0.27,0.15-0.54,0.21-0.81
				c0.04-0.14,0.07-0.28,0.1-0.42c0.06-0.24,0.11-0.47,0.16-0.71c0.04-0.19,0.07-0.38,0.11-0.58c0.05-0.28,0.1-0.55,0.14-0.83
				c0.88-0.79,1.32-2.09,1.32-3.9v-0.28C54.35,88.59,59.1,87.16,63.2,84.79z"/>
		</g>
		<g>
			<path class="st0" d="M22.19,101.82L8.93,94.38C5.88,92.67,4,89.51,4,86.08v-1.29c4.1,2.37,8.85,3.8,13.93,3.96v0.85
				c0,1.37,0.33,2.42,0.97,3.14c0.12,0.13,0.24,0.25,0.38,0.35C19.76,96.19,20.76,99.13,22.19,101.82z"/>
		</g>
		<g>
			<path class="st0" d="M17.99,60.29c-0.04,0.37-0.06,0.78-0.06,1.23v27.23C12.85,88.59,8.1,87.16,4,84.79V64.25
				C8.12,61.87,12.89,60.44,17.99,60.29z"/>
		</g>
		<g>
			<path class="st0" d="M17.99,60.29c-0.04,0.37-0.06,0.78-0.06,1.23v27.23C12.85,88.59,8.1,87.16,4,84.79V64.25
				C8.12,61.87,12.89,60.44,17.99,60.29z"/>
		</g>
		<g>
			<path class="st0" d="M47.95,92.93c-0.04,0.28-0.09,0.55-0.14,0.83c-0.04,0.2-0.07,0.39-0.11,0.58c-0.05,0.24-0.1,0.47-0.16,0.71
				c-0.03,0.14-0.06,0.28-0.1,0.42c-0.06,0.27-0.14,0.54-0.21,0.81c-0.02,0.04-0.03,0.09-0.04,0.13c-0.05,0.19-0.11,0.38-0.17,0.56
				c-0.06,0.19-0.12,0.37-0.18,0.56c-0.1,0.31-0.21,0.61-0.32,0.91c-0.01,0.02-0.02,0.05-0.03,0.07c-0.08,0.23-0.17,0.45-0.26,0.67
				c-0.21,0.54-0.45,1.08-0.7,1.6c-0.16,0.35-0.34,0.7-0.52,1.04l-6.48,3.64c-3.05,1.72-6.81,1.72-9.86,0l-6.48-3.64
				c-1.43-2.69-2.43-5.63-2.91-8.73c0.59,0.49,1.33,0.73,2.2,0.73c1.04,0,1.89-0.35,2.56-1.07c0.66-0.71,0.99-1.76,0.99-3.15v-1.45
				c3.06-0.62,5.95-1.72,8.57-3.19c0.92,0.52,1.87,0.98,2.85,1.4c0.33,0.14,0.66,0.27,0.99,0.4l1.82,2.72
				c0.41,0.58,0.82,1.14,1.22,1.7c0.41,0.55,0.86,1.04,1.33,1.45c0.48,0.41,0.99,0.72,1.54,0.91c0.54,0.19,1.15,0.28,1.83,0.28
				C46.35,93.82,47.28,93.52,47.95,92.93z"/>
		</g>
		<g>
			<path class="st0" d="M47.95,92.93c-0.04,0.28-0.09,0.55-0.14,0.83c-0.04,0.2-0.07,0.39-0.11,0.58c-0.05,0.24-0.1,0.47-0.16,0.71
				c-0.03,0.14-0.06,0.28-0.1,0.42c-0.06,0.27-0.14,0.54-0.21,0.81c-0.02,0.04-0.03,0.09-0.04,0.13c-0.05,0.19-0.11,0.38-0.17,0.56
				c-0.06,0.19-0.12,0.37-0.18,0.56c-0.1,0.31-0.21,0.61-0.32,0.91c-0.01,0.02-0.02,0.05-0.03,0.07c-0.08,0.23-0.17,0.45-0.26,0.67
				c-0.21,0.54-0.45,1.08-0.7,1.6c-0.16,0.35-0.34,0.7-0.52,1.04l-6.48,3.64c-3.05,1.72-6.81,1.72-9.86,0l-6.48-3.64
				c-1.43-2.69-2.43-5.63-2.91-8.73c0.59,0.49,1.33,0.73,2.2,0.73c1.04,0,1.89-0.35,2.56-1.07c0.66-0.71,0.99-1.76,0.99-3.15v-1.45
				c3.06-0.62,5.95-1.72,8.57-3.19c0.92,0.52,1.87,0.98,2.85,1.4c0.33,0.14,0.66,0.27,0.99,0.4l1.82,2.72
				c0.41,0.58,0.82,1.14,1.22,1.7c0.41,0.55,0.86,1.04,1.33,1.45c0.48,0.41,0.99,0.72,1.54,0.91c0.54,0.19,1.15,0.28,1.83,0.28
				C46.35,93.82,47.28,93.52,47.95,92.93z"/>
		</g>
		<g>
			<path class="st0" d="M33.6,84.96c-2.62,1.47-5.51,2.57-8.57,3.19V77.66C27.37,80.6,30.28,83.09,33.6,84.96z"/>
		</g>
		<g>
			<path class="st0" d="M33.6,84.96c-2.62,1.47-5.51,2.57-8.57,3.19V77.66C27.37,80.6,30.28,83.09,33.6,84.96z"/>
		</g>
		<g>
			<path class="st0" d="M33.6,84.96c-2.62,1.47-5.51,2.57-8.57,3.19V77.66C27.37,80.6,30.28,83.09,33.6,84.96z"/>
		</g>
		<g>
			<path class="st0" d="M63.2,63.92v0.33c-4.1-2.37-8.85-3.8-13.93-3.96c-0.02-1.36-0.33-2.37-0.94-3.06
				c-0.08-0.09-0.17-0.18-0.27-0.26c-0.03-0.32-0.08-0.64-0.13-0.95c-0.01-0.1-0.03-0.2-0.05-0.3c-0.05-0.32-0.1-0.64-0.17-0.95
				c-0.06-0.33-0.14-0.65-0.21-0.97c-0.02-0.08-0.04-0.15-0.06-0.23c-0.07-0.3-0.15-0.61-0.24-0.91c-0.06-0.2-0.12-0.4-0.18-0.6
				c-0.07-0.22-0.13-0.43-0.21-0.64c-0.11-0.32-0.23-0.66-0.35-0.98c-0.01-0.03-0.02-0.05-0.03-0.08c-0.09-0.24-0.18-0.48-0.29-0.72
				c-0.02-0.07-0.05-0.14-0.08-0.21c-0.12-0.28-0.25-0.56-0.38-0.84c0-0.02-0.01-0.03-0.02-0.05l12.61,7.08
				C61.32,57.33,63.2,60.49,63.2,63.92z"/>
		</g>
		<g>
			<path class="st0" d="M48.06,56.97c-0.6-0.53-1.37-0.79-2.31-0.79c-1.06,0-1.9,0.35-2.52,1.05c-0.62,0.71-0.93,1.76-0.93,3.17
				v0.46c-0.09,0.02-0.18,0.04-0.26,0.06c-0.22,0.04-0.45,0.09-0.67,0.15c-0.14,0.02-0.29,0.06-0.43,0.1
				c-0.26,0.06-0.51,0.13-0.77,0.2c-0.42,0.11-0.83,0.24-1.25,0.38c-0.28,0.09-0.56,0.19-0.83,0.29c-0.28,0.1-0.55,0.2-0.83,0.31
				c-0.18,0.06-0.35,0.13-0.53,0.21c-0.39,0.16-0.76,0.32-1.13,0.5c-0.27,0.12-0.54,0.25-0.8,0.39c-0.41,0.2-0.81,0.41-1.2,0.63
				c-1.6-0.9-3.29-1.65-5.05-2.24l-0.84-1.24c-0.4-0.63-0.8-1.23-1.18-1.81c-0.39-0.58-0.76-1.06-1.13-1.42
				c-0.36-0.36-0.79-0.65-1.27-0.87c-0.49-0.21-1.07-0.32-1.75-0.32c-0.87,0-1.68,0.23-2.43,0.71c-0.34,0.21-0.63,0.45-0.88,0.72
				c0.3-3.2,1.16-6.26,2.47-9.07l7.13-4c3.05-1.72,6.81-1.72,9.86,0l7.13,4c0.01,0.02,0.02,0.03,0.02,0.05
				c0.13,0.28,0.26,0.56,0.38,0.84c0.03,0.07,0.06,0.14,0.08,0.21c0.11,0.24,0.2,0.48,0.29,0.72c0.01,0.03,0.02,0.05,0.03,0.08
				c0.12,0.32,0.24,0.66,0.35,0.98c0.08,0.21,0.14,0.42,0.21,0.64c0.06,0.2,0.12,0.4,0.18,0.6c0.09,0.3,0.17,0.61,0.24,0.91
				c0.02,0.08,0.04,0.15,0.06,0.23c0.07,0.32,0.15,0.64,0.21,0.97c0.06,0.31,0.12,0.63,0.17,0.95c0.02,0.1,0.04,0.2,0.05,0.3
				C47.98,56.34,48.02,56.65,48.06,56.97z"/>
		</g>
		<g>
			<path class="st0" d="M48.06,56.97c-0.6-0.53-1.37-0.79-2.31-0.79c-1.06,0-1.9,0.35-2.52,1.05c-0.62,0.71-0.93,1.76-0.93,3.17
				v0.46c-0.09,0.02-0.18,0.04-0.26,0.06c-0.22,0.04-0.45,0.09-0.67,0.15c-0.14,0.02-0.29,0.06-0.43,0.1
				c-0.26,0.06-0.51,0.13-0.77,0.2c-0.42,0.11-0.83,0.24-1.25,0.38c-0.28,0.09-0.56,0.19-0.83,0.29c-0.28,0.1-0.55,0.2-0.83,0.31
				c-0.18,0.06-0.35,0.13-0.53,0.21c-0.39,0.16-0.76,0.32-1.13,0.5c-0.27,0.12-0.54,0.25-0.8,0.39c-0.41,0.2-0.81,0.41-1.2,0.63
				c-1.6-0.9-3.29-1.65-5.05-2.24l-0.84-1.24c-0.4-0.63-0.8-1.23-1.18-1.81c-0.39-0.58-0.76-1.06-1.13-1.42
				c-0.36-0.36-0.79-0.65-1.27-0.87c-0.49-0.21-1.07-0.32-1.75-0.32c-0.87,0-1.68,0.23-2.43,0.71c-0.34,0.21-0.63,0.45-0.88,0.72
				c0.3-3.2,1.16-6.26,2.47-9.07l7.13-4c3.05-1.72,6.81-1.72,9.86,0l7.13,4c0.01,0.02,0.02,0.03,0.02,0.05
				c0.13,0.28,0.26,0.56,0.38,0.84c0.03,0.07,0.06,0.14,0.08,0.21c0.11,0.24,0.2,0.48,0.29,0.72c0.01,0.03,0.02,0.05,0.03,0.08
				c0.12,0.32,0.24,0.66,0.35,0.98c0.08,0.21,0.14,0.42,0.21,0.64c0.06,0.2,0.12,0.4,0.18,0.6c0.09,0.3,0.17,0.61,0.24,0.91
				c0.02,0.08,0.04,0.15,0.06,0.23c0.07,0.32,0.15,0.64,0.21,0.97c0.06,0.31,0.12,0.63,0.17,0.95c0.02,0.1,0.04,0.2,0.05,0.3
				C47.98,56.34,48.02,56.65,48.06,56.97z"/>
		</g>
		<g>
			<path class="st0" d="M63.2,64.25v20.54c-4.1,2.37-8.85,3.8-13.93,3.96V60.29C54.35,60.45,59.1,61.88,63.2,64.25z"/>
		</g>
		<g>
			<path class="st0" d="M63.2,64.25v20.54c-4.1,2.37-8.85,3.8-13.93,3.96V60.29C54.35,60.45,59.1,61.88,63.2,64.25z"/>
		</g>
		<g>
			<path class="st0" d="M42.3,60.86v10.69c-0.81-1.04-1.68-2.02-2.63-2.93c-0.2-0.19-0.4-0.38-0.6-0.56
				c-0.09-0.09-0.18-0.18-0.27-0.24c-0.17-0.17-0.35-0.32-0.53-0.47c-0.1-0.09-0.19-0.17-0.29-0.25h-0.01
				c-0.23-0.2-0.45-0.39-0.69-0.56c-0.04-0.04-0.09-0.08-0.14-0.11c-0.25-0.2-0.5-0.39-0.76-0.57c-0.12-0.08-0.24-0.17-0.36-0.25
				c-0.1-0.07-0.19-0.14-0.29-0.2c-0.28-0.2-0.57-0.39-0.86-0.56c-0.01-0.02-0.03-0.03-0.04-0.03c-0.4-0.26-0.81-0.51-1.23-0.74
				c0.39-0.22,0.79-0.43,1.2-0.63c0.26-0.14,0.53-0.27,0.8-0.39c0.37-0.18,0.74-0.34,1.13-0.5c0.18-0.08,0.35-0.15,0.53-0.21
				c0.28-0.11,0.55-0.21,0.83-0.31c0.27-0.1,0.55-0.2,0.83-0.29c0.42-0.14,0.83-0.27,1.25-0.38c0.26-0.07,0.51-0.14,0.77-0.2
				c0.14-0.04,0.29-0.08,0.43-0.1c0.22-0.06,0.45-0.11,0.67-0.15C42.12,60.9,42.21,60.88,42.3,60.86z"/>
		</g>
		<g>
			<path class="st0" d="M42.3,60.86v10.69c-0.81-1.04-1.68-2.02-2.63-2.93c-0.2-0.19-0.4-0.38-0.6-0.56
				c-0.09-0.09-0.18-0.18-0.27-0.24c-0.17-0.17-0.35-0.32-0.53-0.47c-0.1-0.09-0.19-0.17-0.29-0.25h-0.01
				c-0.23-0.2-0.45-0.39-0.69-0.56c-0.04-0.04-0.09-0.08-0.14-0.11c-0.25-0.2-0.5-0.39-0.76-0.57c-0.12-0.08-0.24-0.17-0.36-0.25
				c-0.1-0.07-0.19-0.14-0.29-0.2c-0.28-0.2-0.57-0.39-0.86-0.56c-0.01-0.02-0.03-0.03-0.04-0.03c-0.4-0.26-0.81-0.51-1.23-0.74
				c0.39-0.22,0.79-0.43,1.2-0.63c0.26-0.14,0.53-0.27,0.8-0.39c0.37-0.18,0.74-0.34,1.13-0.5c0.18-0.08,0.35-0.15,0.53-0.21
				c0.28-0.11,0.55-0.21,0.83-0.31c0.27-0.1,0.55-0.2,0.83-0.29c0.42-0.14,0.83-0.27,1.25-0.38c0.26-0.07,0.51-0.14,0.77-0.2
				c0.14-0.04,0.29-0.08,0.43-0.1c0.22-0.06,0.45-0.11,0.67-0.15C42.12,60.9,42.21,60.88,42.3,60.86z"/>
		</g>
		<g>
			<path class="st0" d="M42.3,60.86v10.69c-0.81-1.04-1.68-2.02-2.63-2.93c-0.2-0.19-0.4-0.38-0.6-0.56
				c-0.09-0.09-0.18-0.18-0.27-0.24c-0.17-0.17-0.35-0.32-0.53-0.47c-0.1-0.09-0.19-0.17-0.29-0.25h-0.01
				c-0.23-0.2-0.45-0.39-0.69-0.56c-0.04-0.04-0.09-0.08-0.14-0.11c-0.25-0.2-0.5-0.39-0.76-0.57c-0.12-0.08-0.24-0.17-0.36-0.25
				c-0.1-0.07-0.19-0.14-0.29-0.2c-0.28-0.2-0.57-0.39-0.86-0.56c-0.01-0.02-0.03-0.03-0.04-0.03c-0.4-0.26-0.81-0.51-1.23-0.74
				c0.39-0.22,0.79-0.43,1.2-0.63c0.26-0.14,0.53-0.27,0.8-0.39c0.37-0.18,0.74-0.34,1.13-0.5c0.18-0.08,0.35-0.15,0.53-0.21
				c0.28-0.11,0.55-0.21,0.83-0.31c0.27-0.1,0.55-0.2,0.83-0.29c0.42-0.14,0.83-0.27,1.25-0.38c0.26-0.07,0.51-0.14,0.77-0.2
				c0.14-0.04,0.29-0.08,0.43-0.1c0.22-0.06,0.45-0.11,0.67-0.15C42.12,60.9,42.21,60.88,42.3,60.86z"/>
		</g>
		<g>
			<path class="st0" d="M26.2,70.01c-0.41,0.44-0.79,0.9-1.17,1.37v-3.11L26.2,70.01z"/>
		</g>
		<g>
			<path class="st0" d="M33.6,64.08c-0.85,0.48-1.67,1-2.46,1.56l-2.59-3.8C30.31,62.43,32,63.18,33.6,64.08z"/>
		</g>
		<g>
			<path class="st0" d="M26.2,70.01c-0.41,0.44-0.79,0.9-1.17,1.37v-3.11L26.2,70.01z"/>
		</g>
		<g>
			<path class="st0" d="M33.6,64.08c-0.85,0.48-1.67,1-2.46,1.56l-2.59-3.8C30.31,62.43,32,63.18,33.6,64.08z"/>
		</g>
		<g>
			<path class="st0" d="M26.2,70.01c-0.41,0.44-0.79,0.9-1.17,1.37v-3.11L26.2,70.01z"/>
		</g>
		<g>
			<path class="st0" d="M33.6,64.08c-0.85,0.48-1.67,1-2.46,1.56l-2.59-3.8C30.31,62.43,32,63.18,33.6,64.08z"/>
		</g>
		<g>
			<path class="st0" d="M37.44,86.76c-0.33-0.13-0.66-0.26-0.99-0.4c-0.98-0.42-1.93-0.88-2.85-1.4c0.24-0.14,0.49-0.28,0.72-0.42
				c0.08-0.05,0.15-0.09,0.22-0.14c0.32-0.19,0.62-0.38,0.92-0.59L37.44,86.76z"/>
		</g>
		<g>
			<path class="st0" d="M42.3,77.49v4.56l-1.73-2.55c0.23-0.24,0.46-0.49,0.67-0.74C41.62,78.35,41.96,77.93,42.3,77.49z"/>
		</g>
		<g>
			<path class="st0" d="M37.44,86.76c-0.33-0.13-0.66-0.26-0.99-0.4c-0.98-0.42-1.93-0.88-2.85-1.4c0.24-0.14,0.49-0.28,0.72-0.42
				c0.08-0.05,0.15-0.09,0.22-0.14c0.32-0.19,0.62-0.38,0.92-0.59L37.44,86.76z"/>
		</g>
		<g>
			<path class="st0" d="M42.3,77.49v4.56l-1.73-2.55c0.23-0.24,0.46-0.49,0.67-0.74C41.62,78.35,41.96,77.93,42.3,77.49z"/>
		</g>
		<g>
			<path class="st0" d="M37.44,86.76c-0.33-0.13-0.66-0.26-0.99-0.4c-0.98-0.42-1.93-0.88-2.85-1.4c0.24-0.14,0.49-0.28,0.72-0.42
				c0.08-0.05,0.15-0.09,0.22-0.14c0.32-0.19,0.62-0.38,0.92-0.59L37.44,86.76z"/>
		</g>
		<g>
			<path class="st0" d="M42.3,77.49v4.56l-1.73-2.55c0.23-0.24,0.46-0.49,0.67-0.74C41.62,78.35,41.96,77.93,42.3,77.49z"/>
		</g>
		<g>
			<path class="st0" d="M35.46,83.81c-0.3,0.21-0.6,0.4-0.92,0.59c-0.07,0.05-0.14,0.09-0.22,0.14c-0.23,0.14-0.48,0.28-0.72,0.42
				c-3.32-1.87-6.23-4.36-8.57-7.3v-6.28c0.38-0.47,0.76-0.93,1.17-1.37L35.46,83.81z"/>
		</g>
		<g>
			<path class="st0" d="M42.3,71.55v5.94c-0.34,0.44-0.68,0.86-1.06,1.27c-0.21,0.25-0.44,0.5-0.67,0.74l-9.43-13.86
				c0.79-0.56,1.61-1.08,2.46-1.56c0.42,0.23,0.83,0.48,1.23,0.74c0.01,0,0.03,0.01,0.04,0.03c0.29,0.17,0.58,0.36,0.86,0.56
				c0.1,0.06,0.19,0.13,0.29,0.2c0.12,0.08,0.24,0.17,0.36,0.25c0.26,0.18,0.51,0.37,0.76,0.57c0.05,0.03,0.1,0.07,0.14,0.11
				c0.24,0.17,0.46,0.36,0.69,0.56h0.01c0.1,0.08,0.19,0.16,0.29,0.25c0.18,0.15,0.36,0.3,0.53,0.47c0.09,0.06,0.18,0.15,0.27,0.24
				c0.2,0.18,0.4,0.37,0.6,0.56C40.62,69.53,41.49,70.51,42.3,71.55z"/>
		</g>
		<g>
			<path class="st0" d="M35.46,83.81c-0.3,0.21-0.6,0.4-0.92,0.59c-0.07,0.05-0.14,0.09-0.22,0.14c-0.23,0.14-0.48,0.28-0.72,0.42
				c-3.32-1.87-6.23-4.36-8.57-7.3v-6.28c0.38-0.47,0.76-0.93,1.17-1.37L35.46,83.81z"/>
		</g>
		<g>
			<path class="st0" d="M42.3,71.55v5.94c-0.34,0.44-0.68,0.86-1.06,1.27c-0.21,0.25-0.44,0.5-0.67,0.74l-9.43-13.86
				c0.79-0.56,1.61-1.08,2.46-1.56c0.42,0.23,0.83,0.48,1.23,0.74c0.01,0,0.03,0.01,0.04,0.03c0.29,0.17,0.58,0.36,0.86,0.56
				c0.1,0.06,0.19,0.13,0.29,0.2c0.12,0.08,0.24,0.17,0.36,0.25c0.26,0.18,0.51,0.37,0.76,0.57c0.05,0.03,0.1,0.07,0.14,0.11
				c0.24,0.17,0.46,0.36,0.69,0.56h0.01c0.1,0.08,0.19,0.16,0.29,0.25c0.18,0.15,0.36,0.3,0.53,0.47c0.09,0.06,0.18,0.15,0.27,0.24
				c0.2,0.18,0.4,0.37,0.6,0.56C40.62,69.53,41.49,70.51,42.3,71.55z"/>
		</g>
		<g>
			<path class="st0" d="M35.46,83.81c-0.3,0.21-0.6,0.4-0.92,0.59c-0.07,0.05-0.14,0.09-0.22,0.14c-0.23,0.14-0.48,0.28-0.72,0.42
				c-3.32-1.87-6.23-4.36-8.57-7.3v-6.28c0.38-0.47,0.76-0.93,1.17-1.37L35.46,83.81z"/>
		</g>
		<g>
			<path class="st0" d="M42.3,71.55v5.94c-0.34,0.44-0.68,0.86-1.06,1.27c-0.21,0.25-0.44,0.5-0.67,0.74l-9.43-13.86
				c0.79-0.56,1.61-1.08,2.46-1.56c0.42,0.23,0.83,0.48,1.23,0.74c0.01,0,0.03,0.01,0.04,0.03c0.29,0.17,0.58,0.36,0.86,0.56
				c0.1,0.06,0.19,0.13,0.29,0.2c0.12,0.08,0.24,0.17,0.36,0.25c0.26,0.18,0.51,0.37,0.76,0.57c0.05,0.03,0.1,0.07,0.14,0.11
				c0.24,0.17,0.46,0.36,0.69,0.56h0.01c0.1,0.08,0.19,0.16,0.29,0.25c0.18,0.15,0.36,0.3,0.53,0.47c0.09,0.06,0.18,0.15,0.27,0.24
				c0.2,0.18,0.4,0.37,0.6,0.56C40.62,69.53,41.49,70.51,42.3,71.55z"/>
		</g>
		<g>
			<path class="st0" d="M35.46,83.81c-0.3,0.21-0.6,0.4-0.92,0.59c-0.07,0.05-0.14,0.09-0.22,0.14c-0.23,0.14-0.48,0.28-0.72,0.42
				c-3.32-1.87-6.23-4.36-8.57-7.3v-6.28c0.38-0.47,0.76-0.93,1.17-1.37L35.46,83.81z"/>
		</g>
		<g>
			<path class="st0" d="M42.3,71.55v5.94c-0.34,0.44-0.68,0.86-1.06,1.27c-0.21,0.25-0.44,0.5-0.67,0.74l-9.43-13.86
				c0.79-0.56,1.61-1.08,2.46-1.56c0.42,0.23,0.83,0.48,1.23,0.74c0.01,0,0.03,0.01,0.04,0.03c0.29,0.17,0.58,0.36,0.86,0.56
				c0.1,0.06,0.19,0.13,0.29,0.2c0.12,0.08,0.24,0.17,0.36,0.25c0.26,0.18,0.51,0.37,0.76,0.57c0.05,0.03,0.1,0.07,0.14,0.11
				c0.24,0.17,0.46,0.36,0.69,0.56h0.01c0.1,0.08,0.19,0.16,0.29,0.25c0.18,0.15,0.36,0.3,0.53,0.47c0.09,0.06,0.18,0.15,0.27,0.24
				c0.2,0.18,0.4,0.37,0.6,0.56C40.62,69.53,41.49,70.51,42.3,71.55z"/>
		</g>
	</g>
	<g>
		<g>
			<g>
				<path class="st0" d="M76.7,88.95h-2.02v1.64h2.25v0.49h-2.93v-4.54h2.81v0.49h-2.14v1.43h2.02V88.95z"/>
			</g>
			<g>
				<path class="st0" d="M81.18,86.3v3.94c0,0.29,0.01,0.62,0.03,0.84H80.6l-0.03-0.57h-0.02c-0.21,0.36-0.66,0.64-1.27,0.64
					c-0.9,0-1.6-0.67-1.6-1.66c-0.01-1.08,0.76-1.75,1.68-1.75c0.57,0,0.96,0.24,1.13,0.5h0.02V86.3H81.18z M80.5,89.14
					c0-0.07-0.01-0.18-0.03-0.25c-0.1-0.38-0.47-0.69-0.98-0.69c-0.7,0-1.12,0.54-1.12,1.26c0,0.66,0.37,1.21,1.1,1.21
					c0.46,0,0.87-0.26,1-0.71c0.02-0.08,0.03-0.16,0.03-0.26V89.14z"/>
			</g>
			<g>
				<path class="st0" d="M85.63,90.19c0,0.34,0.01,0.63,0.03,0.89h-0.6l-0.04-0.53h-0.02c-0.18,0.26-0.57,0.61-1.24,0.61
					c-0.59,0-1.29-0.28-1.29-1.43v-1.91h0.68v1.8c0,0.62,0.22,1.04,0.83,1.04c0.46,0,0.77-0.28,0.9-0.54
					c0.04-0.09,0.06-0.2,0.06-0.3v-2h0.68V90.19z"/>
			</g>
			<g>
				<path class="st0" d="M89.62,90.96c-0.18,0.08-0.57,0.19-1.07,0.19c-1.13,0-1.86-0.67-1.86-1.66c0-1,0.79-1.73,2.01-1.73
					c0.4,0,0.76,0.09,0.94,0.17l-0.15,0.46c-0.16-0.08-0.42-0.15-0.79-0.15c-0.86,0-1.32,0.55-1.32,1.23c0,0.75,0.56,1.22,1.3,1.22
					c0.39,0,0.64-0.09,0.83-0.16L89.62,90.96z"/>
			</g>
			<g>
				<path class="st0" d="M92.69,91.08l-0.05-0.41h-0.02c-0.21,0.26-0.61,0.48-1.14,0.48c-0.76,0-1.14-0.46-1.14-0.94
					c0-0.79,0.8-1.22,2.25-1.21v-0.07c0-0.27-0.08-0.75-0.85-0.75c-0.35,0-0.71,0.09-0.97,0.24l-0.15-0.39
					c0.31-0.18,0.76-0.29,1.23-0.29c1.14,0,1.42,0.68,1.42,1.33v1.22c0,0.28,0.02,0.56,0.06,0.78H92.69z M92.59,89.41
					c-0.74-0.01-1.58,0.1-1.58,0.73c0,0.38,0.29,0.57,0.64,0.57c0.49,0,0.8-0.27,0.9-0.55c0.02-0.06,0.04-0.13,0.04-0.19V89.41z"/>
			</g>
			<g>
				<path class="st0" d="M95.33,86.88v0.94h0.97v0.45h-0.97v1.76c0,0.4,0.13,0.63,0.51,0.63c0.18,0,0.31-0.02,0.39-0.04l0.03,0.44
					c-0.13,0.05-0.34,0.08-0.6,0.08c-0.32,0-0.57-0.09-0.73-0.25c-0.19-0.17-0.26-0.46-0.26-0.85v-1.78h-0.58v-0.45h0.58v-0.78
					L95.33,86.88z"/>
			</g>
			<g>
				<path class="st0" d="M98.02,86.9c0.01,0.2-0.16,0.36-0.43,0.36c-0.24,0-0.41-0.16-0.41-0.36c0-0.21,0.18-0.37,0.42-0.37
					C97.86,86.53,98.02,86.69,98.02,86.9z M97.27,91.08v-3.26h0.68v3.26H97.27z"/>
			</g>
			<g>
				<path class="st0" d="M102.65,89.42c0,1.21-0.96,1.73-1.86,1.73c-1.01,0-1.79-0.65-1.79-1.68c0-1.09,0.82-1.73,1.85-1.73
					C101.93,87.74,102.65,88.42,102.65,89.42z M99.69,89.45c0,0.71,0.47,1.25,1.14,1.25c0.65,0,1.13-0.53,1.13-1.27
					c0-0.55-0.32-1.25-1.12-1.25C100.04,88.19,99.69,88.83,99.69,89.45z"/>
			</g>
			<g>
				<path class="st0" d="M103.71,88.7c0-0.34-0.01-0.61-0.03-0.88h0.6l0.04,0.54h0.02c0.19-0.31,0.62-0.61,1.24-0.61
					c0.52,0,1.32,0.27,1.32,1.39v1.95h-0.68V89.2c0-0.53-0.22-0.96-0.86-0.96c-0.45,0-0.8,0.28-0.91,0.61
					c-0.03,0.07-0.05,0.18-0.05,0.28v1.96h-0.68V88.7z"/>
			</g>
			<g>
				<path class="st0" d="M113.31,91.08c-0.15-0.13-0.29-0.26-0.49-0.44c-0.45,0.36-0.95,0.52-1.52,0.52c-1.01,0-1.6-0.59-1.6-1.27
					c0-0.62,0.42-1.04,1.02-1.33v-0.02c-0.27-0.3-0.43-0.63-0.43-0.95c0-0.55,0.46-1.12,1.32-1.12c0.65,0,1.15,0.38,1.15,0.96
					c0,0.48-0.32,0.86-1.14,1.21v0.02c0.44,0.44,0.93,0.94,1.27,1.27c0.24-0.32,0.4-0.75,0.5-1.33h0.62
					c-0.14,0.71-0.36,1.28-0.75,1.68c0.28,0.26,0.55,0.51,0.86,0.8H113.31z M112.5,90.3c-0.31-0.3-0.89-0.85-1.47-1.43
					c-0.28,0.15-0.67,0.44-0.67,0.92c0,0.52,0.44,0.92,1.07,0.92C111.87,90.71,112.25,90.53,112.5,90.3z M110.91,87.53
					c0,0.32,0.17,0.57,0.39,0.81c0.52-0.26,0.86-0.51,0.86-0.89c0-0.28-0.18-0.59-0.6-0.59C111.14,86.87,110.91,87.18,110.91,87.53z
					"/>
			</g>
			<g>
				<path class="st0" d="M121.15,89.08c-0.04-0.63-0.08-1.39-0.08-1.96h-0.02c-0.18,0.53-0.39,1.1-0.66,1.72l-0.92,2.2h-0.51
					l-0.84-2.16c-0.25-0.64-0.46-1.23-0.6-1.76h-0.02c-0.02,0.57-0.05,1.33-0.1,2.01l-0.14,1.95h-0.64l0.36-4.54h0.86l0.89,2.19
					c0.22,0.56,0.39,1.06,0.52,1.53h0.02c0.13-0.46,0.32-0.96,0.55-1.53l0.93-2.19h0.86l0.32,4.54h-0.66L121.15,89.08z"/>
			</g>
			<g>
				<path class="st0" d="M124,86.9c0.01,0.2-0.16,0.36-0.43,0.36c-0.24,0-0.41-0.16-0.41-0.36c0-0.21,0.18-0.37,0.42-0.37
					C123.83,86.53,124,86.69,124,86.9z M123.24,91.08v-3.26h0.68v3.26H123.24z"/>
			</g>
			<g>
				<path class="st0" d="M128.47,87.82c-0.02,0.24-0.03,0.5-0.03,0.9v1.89c0,0.75-0.17,1.21-0.53,1.49
					c-0.36,0.3-0.89,0.39-1.36,0.39c-0.45,0-0.94-0.09-1.24-0.27l0.17-0.45c0.25,0.13,0.63,0.26,1.1,0.26c0.69,0,1.2-0.32,1.2-1.14
					v-0.36h-0.02c-0.21,0.3-0.61,0.55-1.19,0.55c-0.93,0-1.59-0.69-1.59-1.59c0-1.1,0.83-1.73,1.68-1.73c0.65,0,1,0.3,1.17,0.57
					h0.02l0.03-0.49H128.47z M127.76,89.1c0-0.1-0.01-0.19-0.04-0.27c-0.12-0.34-0.46-0.63-0.95-0.63c-0.65,0-1.11,0.48-1.11,1.23
					c0,0.64,0.37,1.17,1.1,1.17c0.42,0,0.8-0.23,0.94-0.61c0.04-0.1,0.05-0.22,0.05-0.32V89.1z"/>
			</g>
			<g>
				<path class="st0" d="M129.72,88.83c0-0.38-0.01-0.71-0.03-1.02h0.59l0.02,0.64h0.03c0.17-0.44,0.58-0.71,1.03-0.71
					c0.08,0,0.13,0.01,0.19,0.02v0.56c-0.07-0.01-0.14-0.02-0.23-0.02c-0.48,0-0.82,0.32-0.91,0.76c-0.02,0.08-0.03,0.17-0.03,0.28
					v1.74h-0.67V88.83z"/>
			</g>
			<g>
				<path class="st0" d="M134.47,91.08l-0.05-0.41h-0.02c-0.21,0.26-0.61,0.48-1.14,0.48c-0.76,0-1.14-0.46-1.14-0.94
					c0-0.79,0.8-1.22,2.25-1.21v-0.07c0-0.27-0.08-0.75-0.85-0.75c-0.35,0-0.71,0.09-0.97,0.24l-0.15-0.39
					c0.31-0.18,0.76-0.29,1.23-0.29c1.14,0,1.42,0.68,1.42,1.33v1.22c0,0.28,0.02,0.56,0.06,0.78H134.47z M134.37,89.41
					c-0.74-0.01-1.58,0.1-1.58,0.73c0,0.38,0.29,0.57,0.64,0.57c0.49,0,0.8-0.27,0.9-0.55c0.02-0.06,0.04-0.13,0.04-0.19V89.41z"/>
			</g>
			<g>
				<path class="st0" d="M137.11,86.88v0.94h0.97v0.45h-0.97v1.76c0,0.4,0.13,0.63,0.51,0.63c0.18,0,0.31-0.02,0.39-0.04l0.03,0.44
					c-0.13,0.05-0.34,0.08-0.6,0.08c-0.32,0-0.57-0.09-0.73-0.25c-0.19-0.17-0.26-0.46-0.26-0.85v-1.78h-0.58v-0.45h0.58v-0.78
					L137.11,86.88z"/>
			</g>
			<g>
				<path class="st0" d="M139.8,86.9c0.01,0.2-0.16,0.36-0.43,0.36c-0.24,0-0.41-0.16-0.41-0.36c0-0.21,0.18-0.37,0.42-0.37
					C139.64,86.53,139.8,86.69,139.8,86.9z M139.05,91.08v-3.26h0.68v3.26H139.05z"/>
			</g>
			<g>
				<path class="st0" d="M144.44,89.42c0,1.21-0.96,1.73-1.86,1.73c-1.01,0-1.79-0.65-1.79-1.68c0-1.09,0.82-1.73,1.85-1.73
					C143.71,87.74,144.44,88.42,144.44,89.42z M141.47,89.45c0,0.71,0.47,1.25,1.13,1.25c0.65,0,1.13-0.53,1.13-1.27
					c0-0.55-0.32-1.25-1.12-1.25C141.82,88.19,141.47,88.83,141.47,89.45z"/>
			</g>
			<g>
				<path class="st0" d="M145.49,88.7c0-0.34-0.01-0.61-0.03-0.88h0.6l0.04,0.54h0.02c0.19-0.31,0.62-0.61,1.24-0.61
					c0.52,0,1.32,0.27,1.32,1.39v1.95h-0.68V89.2c0-0.53-0.22-0.96-0.86-0.96c-0.45,0-0.8,0.28-0.91,0.61
					c-0.03,0.07-0.05,0.18-0.05,0.28v1.96h-0.68V88.7z"/>
			</g>
			<g>
				<path class="st0" d="M155.47,90.93c-0.25,0.11-0.74,0.22-1.37,0.22c-1.47,0-2.57-0.81-2.57-2.3c0-1.42,1.1-2.38,2.72-2.38
					c0.65,0,1.06,0.12,1.24,0.2l-0.16,0.48c-0.25-0.11-0.62-0.19-1.05-0.19c-1.22,0-2.03,0.68-2.03,1.87c0,1.11,0.73,1.82,2,1.82
					c0.41,0,0.83-0.07,1.1-0.19L155.47,90.93z"/>
			</g>
			<g>
				<path class="st0" d="M159.79,89.42c0,1.21-0.96,1.73-1.86,1.73c-1.01,0-1.79-0.65-1.79-1.68c0-1.09,0.82-1.73,1.85-1.73
					C159.06,87.74,159.79,88.42,159.79,89.42z M156.82,89.45c0,0.71,0.47,1.25,1.13,1.25c0.65,0,1.13-0.53,1.13-1.27
					c0-0.55-0.32-1.25-1.12-1.25C157.17,88.19,156.82,88.83,156.82,89.45z"/>
			</g>
			<g>
				<path class="st0" d="M160.85,88.7c0-0.34-0.01-0.61-0.03-0.88h0.6l0.04,0.54h0.02c0.19-0.31,0.62-0.61,1.24-0.61
					c0.52,0,1.32,0.27,1.32,1.39v1.95h-0.68V89.2c0-0.53-0.22-0.96-0.86-0.96c-0.45,0-0.8,0.28-0.91,0.61
					c-0.03,0.07-0.05,0.18-0.05,0.28v1.96h-0.68V88.7z"/>
			</g>
			<g>
				<path class="st0" d="M165.24,90.47c0.2,0.11,0.56,0.24,0.9,0.24c0.49,0,0.73-0.22,0.73-0.48c0-0.28-0.19-0.44-0.69-0.6
					c-0.67-0.21-0.99-0.53-0.99-0.92c0-0.52,0.49-0.96,1.29-0.96c0.38,0,0.71,0.09,0.92,0.2l-0.17,0.43
					c-0.15-0.08-0.42-0.19-0.76-0.19c-0.4,0-0.63,0.2-0.63,0.44c0,0.27,0.22,0.39,0.71,0.55c0.65,0.22,0.98,0.5,0.98,0.98
					c0,0.57-0.51,0.98-1.4,0.98c-0.41,0-0.79-0.09-1.05-0.22L165.24,90.47z"/>
			</g>
			<g>
				<path class="st0" d="M171.72,90.19c0,0.34,0.01,0.63,0.03,0.89h-0.6l-0.04-0.53h-0.02c-0.18,0.26-0.57,0.61-1.24,0.61
					c-0.59,0-1.29-0.28-1.29-1.43v-1.91h0.68v1.8c0,0.62,0.22,1.04,0.83,1.04c0.46,0,0.77-0.28,0.9-0.54
					c0.04-0.09,0.06-0.2,0.06-0.3v-2h0.68V90.19z"/>
			</g>
			<g>
				<path class="st0" d="M173.04,86.3h0.68v4.78h-0.68V86.3z"/>
			</g>
			<g>
				<path class="st0" d="M175.88,86.88v0.94h0.97v0.45h-0.97v1.76c0,0.4,0.13,0.63,0.51,0.63c0.18,0,0.31-0.02,0.39-0.04l0.03,0.44
					c-0.13,0.05-0.34,0.08-0.6,0.08c-0.32,0-0.57-0.09-0.73-0.25c-0.19-0.17-0.26-0.46-0.26-0.85v-1.78h-0.58v-0.45h0.58v-0.78
					L175.88,86.88z"/>
			</g>
			<g>
				<path class="st0" d="M179.89,91.08l-0.05-0.41h-0.02c-0.21,0.26-0.61,0.48-1.14,0.48c-0.76,0-1.14-0.46-1.14-0.94
					c0-0.79,0.8-1.22,2.25-1.21v-0.07c0-0.27-0.08-0.75-0.85-0.75c-0.35,0-0.71,0.09-0.97,0.24l-0.15-0.39
					c0.31-0.18,0.76-0.29,1.23-0.29c1.14,0,1.42,0.68,1.42,1.33v1.22c0,0.28,0.02,0.56,0.06,0.78H179.89z M179.79,89.41
					c-0.74-0.01-1.58,0.1-1.58,0.73c0,0.38,0.29,0.57,0.64,0.57c0.49,0,0.8-0.27,0.9-0.55c0.02-0.06,0.04-0.13,0.04-0.19V89.41z"/>
			</g>
			<g>
				<path class="st0" d="M181.74,88.7c0-0.34-0.01-0.61-0.03-0.88h0.6l0.04,0.54h0.02c0.19-0.31,0.62-0.61,1.24-0.61
					c0.52,0,1.32,0.27,1.32,1.39v1.95h-0.68V89.2c0-0.53-0.22-0.96-0.86-0.96c-0.45,0-0.8,0.28-0.91,0.61
					c-0.03,0.07-0.05,0.18-0.05,0.28v1.96h-0.68V88.7z"/>
			</g>
			<g>
				<path class="st0" d="M187.01,86.88v0.94h0.97v0.45h-0.97v1.76c0,0.4,0.13,0.63,0.51,0.63c0.18,0,0.31-0.02,0.39-0.04l0.03,0.44
					c-0.13,0.05-0.34,0.08-0.6,0.08c-0.32,0-0.57-0.09-0.73-0.25c-0.19-0.17-0.26-0.46-0.26-0.85v-1.78h-0.58v-0.45h0.58v-0.78
					L187.01,86.88z"/>
			</g>
			<g>
				<path class="st0" d="M188.86,90.47c0.2,0.11,0.56,0.24,0.9,0.24c0.49,0,0.73-0.22,0.73-0.48c0-0.28-0.19-0.44-0.69-0.6
					c-0.67-0.21-0.99-0.53-0.99-0.92c0-0.52,0.49-0.96,1.29-0.96c0.38,0,0.71,0.09,0.92,0.2l-0.17,0.43
					c-0.15-0.08-0.42-0.19-0.76-0.19c-0.4,0-0.63,0.2-0.63,0.44c0,0.27,0.22,0.39,0.71,0.55c0.65,0.22,0.98,0.5,0.98,0.98
					c0,0.57-0.51,0.98-1.4,0.98c-0.41,0-0.79-0.09-1.05-0.22L188.86,90.47z"/>
			</g>
		</g>
		<g id="XMLID_113_">
			<path id="XMLID_7_" class="st0" d="M80.73,60.64l10.12,14.89V60.5c0-0.98,0.22-1.71,0.65-2.2c0.43-0.49,1.01-0.73,1.75-0.73
				c0.76,0,1.35,0.24,1.79,0.73c0.44,0.49,0.66,1.22,0.66,2.2v19.87c0,2.22-0.95,3.33-2.84,3.33c-0.47,0-0.9-0.07-1.28-0.2
				c-0.38-0.13-0.73-0.34-1.06-0.63c-0.33-0.29-0.64-0.62-0.92-1.01c-0.28-0.38-0.57-0.78-0.85-1.18l-9.87-14.72v14.8
				c0,0.97-0.23,1.69-0.69,2.19c-0.46,0.49-1.05,0.74-1.77,0.74c-0.74,0-1.34-0.25-1.79-0.75c-0.45-0.5-0.67-1.23-0.67-2.18V61.28
				c0-0.83,0.09-1.48,0.28-1.95c0.22-0.52,0.6-0.94,1.12-1.27c0.52-0.33,1.08-0.49,1.68-0.49c0.47,0,0.88,0.07,1.21,0.22
				c0.34,0.15,0.63,0.35,0.89,0.6c0.25,0.25,0.51,0.58,0.78,0.98C80.17,59.78,80.45,60.2,80.73,60.64z"/>
		</g>
		<g id="XMLID_94_">
			<path class="st0" d="M101.06,81.6V59.67c0-1.15,0.92-2.04,2.1-2.04h0.04c0,0,0,0,0.08,0h12.38c1.11,0,2.1,0.89,2.1,2.04
				c0,1.15-0.99,2.08-2.1,2.08H105.3v6.8h8.91c1.15,0,2.1,0.97,2.1,2.04c0,1.15-0.96,2.08-2.1,2.08h-8.91v6.84h10.36
				c1.11,0,2.1,0.93,2.1,2.08c0,1.11-0.99,2.04-2.1,2.04h-12.38c-0.08,0-0.08-0.04-0.08-0.04l-0.04,0.04
				C101.97,83.64,101.06,82.71,101.06,81.6z"/>
		</g>
		<g id="XMLID_44_">
			<path class="st0" d="M141.77,70.64c0.04-7.22,6.26-13.08,13.76-13.12c3.3,0,6.3,1.06,8.66,2.84c0.9,0.73,1.05,2,0.37,2.92
				c-0.75,0.91-2.14,1.06-3,0.4c-1.65-1.31-3.71-2-6.04-2c-2.59,0-4.99,1.02-6.75,2.62c-1.69,1.68-2.74,3.86-2.74,6.34
				s1.05,4.74,2.74,6.34c1.76,1.6,4.16,2.62,6.75,2.62c2.32,0,4.35-0.69,6.04-2c0.86-0.62,2.25-0.47,3,0.4
				c0.67,0.91,0.52,2.22-0.37,2.92c-2.36,1.79-5.36,2.84-8.66,2.84C148.03,83.76,141.81,77.89,141.77,70.64z"/>
		</g>
		<g id="XMLID_23_">
			<path class="st0" d="M188.27,61.55c2.29,2.37,3.73,5.53,3.73,9.09c0,3.56-1.44,6.75-3.73,9.09c-2.18,2.34-5.43,3.84-8.83,3.84
				c-3.55,0-6.8-1.51-9.05-3.84c-2.29-2.34-3.66-5.53-3.66-9.09c0-3.56,1.37-6.72,3.66-9.09c2.25-2.37,5.51-3.84,9.05-3.84
				C182.84,57.7,186.09,59.18,188.27,61.55z M187.79,70.64c0-2.44-1-4.71-2.51-6.29c-1.55-1.62-3.62-2.55-5.84-2.55
				c-2.36,0-4.43,0.93-5.99,2.55c-1.55,1.58-2.51,3.84-2.51,6.29s0.96,4.71,2.51,6.25c1.55,1.62,3.62,2.59,5.99,2.59
				c2.22,0,4.29-0.97,5.84-2.59C186.79,75.34,187.79,73.08,187.79,70.64z"/>
		</g>
		<g id="XMLID_2_">
			<g id="XMLID_21_">
				<path class="st0" d="M131.47,70.64h-2.91l-6.87-9.44c-1.1-1.5,0.01-3.58,1.91-3.58h0c0.77,0,1.48,0.36,1.92,0.98l3.19,4.47
					c1.32,1.86,2.24,3.19,2.77,4V70.64z"/>
			</g>
			<g id="XMLID_19_">
				<path class="st0" d="M131.47,67.05c0.53-0.8,1.45-2.14,2.77-4l3.19-4.47c0.44-0.61,1.15-0.98,1.92-0.98l0,0
					c1.9,0,3,2.08,1.91,3.58l-6.87,9.44h-2.91V67.05z"/>
			</g>
			<g id="XMLID_16_">
				<path class="st0" d="M131.47,74.22c-0.53,0.8-1.45,2.14-2.77,4l-3.19,4.47c-0.44,0.61-1.15,0.98-1.92,0.98h0
					c-1.9,0-3-2.08-1.91-3.58l6.87-9.44h2.91V74.22z"/>
			</g>
			<g id="XMLID_3_">
				<path class="st0" d="M131.47,70.64h2.91l6.87,9.44c1.1,1.5-0.01,3.58-1.91,3.58l0,0c-0.77,0-1.48-0.36-1.92-0.98l-3.19-4.47
					c-1.32-1.86-2.24-3.19-2.77-4V70.64z"/>
			</g>
		</g>
	</g>
</g>
</svg>
