<?xml version="1.0" encoding="utf-8"?>
<!-- Generator: Adobe Illustrator 23.0.1, SVG Export Plug-In . SVG Version: 6.00 Build 0)  -->
<svg version="1.1" id="Layer_1" xmlns="http://www.w3.org/2000/svg" xmlns:xlink="http://www.w3.org/1999/xlink" x="0px" y="0px"
	 viewBox="0 0 200 200" style="enable-background:new 0 0 200 200;" xml:space="preserve">
<style type="text/css">
	.st0{clip-path:url(#SVGID_2_);}
	.st1{fill:#FFFFFF;}
</style>
<g>
	<defs>
		<rect id="SVGID_1_" x="14.8" y="1.6" width="170.5" height="190.3"/>
	</defs>
	<clipPath id="SVGID_2_">
		<use xlink:href="#SVGID_1_"  style="overflow:visible;"/>
	</clipPath>
	<g class="st0">
		<g>
			<g>
				<path class="st1" d="M123.4,60c-0.6,0.1-1.2,0.2-1.7,0.4c-0.4,0.1-0.7,0.2-1.1,0.3c-0.7,0.2-1.3,0.3-2,0.5
					c-1.1,0.3-2.1,0.6-3.2,1c-0.7,0.2-1.4,0.5-2.1,0.7c-0.7,0.3-1.4,0.5-2.1,0.8c-0.5,0.2-0.9,0.3-1.4,0.5c-1,0.4-2,0.8-2.9,1.3
					c-0.7,0.3-1.4,0.6-2.1,1c-1.1,0.5-2.1,1.1-3.1,1.6c-4.1-2.3-8.5-4.2-13-5.8l6.7,9.8l24.3,35.7l4.5,6.6V59.9
					C123.8,59.9,123.6,60,123.4,60z M106.4,118.9L82.6,83.4l-3-4.5v51.2c7.9-1.6,15.3-4.4,22.1-8.2c2.4,1.3,4.8,2.5,7.3,3.6
					c0.8,0.4,1.7,0.7,2.5,1L106.4,118.9z M123.4,60c-0.6,0.1-1.2,0.2-1.7,0.4c-0.4,0.1-0.7,0.2-1.1,0.3c-0.7,0.2-1.3,0.3-2,0.5
					c-1.1,0.3-2.1,0.6-3.2,1c-0.7,0.2-1.4,0.5-2.1,0.7c-0.7,0.3-1.4,0.5-2.1,0.8c-0.5,0.2-0.9,0.3-1.4,0.5c-1,0.4-2,0.8-2.9,1.3
					c-0.7,0.3-1.4,0.6-2.1,1c-1.1,0.5-2.1,1.1-3.1,1.6c-4.1-2.3-8.5-4.2-13-5.8l6.7,9.8l24.3,35.7l4.5,6.6V59.9
					C123.8,59.9,123.6,60,123.4,60z M82.6,83.4l-3-4.5v51.2c7.9-1.6,15.3-4.4,22.1-8.2c2.4,1.3,4.8,2.5,7.3,3.6
					c0.8,0.4,1.7,0.7,2.5,1l-5.1-7.6L82.6,83.4z M165.1,46.4l-32.5-18.2l-18.4-10.3c-7.9-4.4-17.5-4.4-25.4,0L70.6,28.2L38.1,46.4
					c-7.9,4.4-12.7,12.5-12.7,21.4v57c0,8.8,4.8,17,12.7,21.4l34.1,19.2l16.7,9.4c7.9,4.4,17.5,4.4,25.4,0l16.7-9.4l34.1-19.2
					c7.9-4.4,12.7-12.5,12.7-21.4v-57C177.8,58.9,173,50.8,165.1,46.4z M142,132.4c0,4.7-1.1,8-3.4,10c-1.7,1.5-4.1,2.3-7.1,2.3
					c-1.8,0-3.3-0.2-4.7-0.7c-1.4-0.5-2.7-1.3-4-2.3c-1.2-1.1-2.4-2.3-3.4-3.7c-1-1.4-2.1-2.9-3.1-4.4l-4.7-7l-5.1-7.6L82.6,83.4
					l-3-4.5v54.9c0,3.6-0.8,6.3-2.5,8.1c-1.7,1.9-3.9,2.8-6.6,2.8c-2.2,0-4.1-0.6-5.7-1.9c-0.4-0.3-0.7-0.6-1-0.9
					c-1.6-1.9-2.5-4.6-2.5-8.1V61.6c0-1.2,0.1-2.2,0.2-3.2c0.2-1.6,0.5-3,0.9-4.1c0.5-1.1,1.1-2,1.9-2.8c0.6-0.7,1.4-1.3,2.3-1.9
					c1.9-1.2,4-1.8,6.3-1.8c1.8,0,3.2,0.3,4.5,0.8c1.2,0.6,2.3,1.3,3.3,2.2c1,0.9,1.9,2.2,2.9,3.7c1,1.5,2,3,3,4.7l2.2,3.2l6.7,9.8
					l24.3,35.7l4.5,6.6V58.7c0-3.6,0.8-6.3,2.4-8.2c1.6-1.8,3.8-2.7,6.5-2.7c2.4,0,4.4,0.7,5.9,2c0.3,0.2,0.5,0.4,0.7,0.7
					c1.6,1.8,2.4,4.4,2.4,7.9C142,58.4,142,132.4,142,132.4z M106.4,118.9L82.6,83.4l-3-4.5v51.2c7.9-1.6,15.3-4.4,22.1-8.2
					c2.4,1.3,4.8,2.5,7.3,3.6c0.8,0.4,1.7,0.7,2.5,1L106.4,118.9z M123.4,60c-0.6,0.1-1.2,0.2-1.7,0.4c-0.4,0.1-0.7,0.2-1.1,0.3
					c-0.7,0.2-1.3,0.3-2,0.5c-1.1,0.3-2.1,0.6-3.2,1c-0.7,0.2-1.4,0.5-2.1,0.7c-0.7,0.3-1.4,0.5-2.1,0.8c-0.5,0.2-0.9,0.3-1.4,0.5
					c-1,0.4-2,0.8-2.9,1.3c-0.7,0.3-1.4,0.6-2.1,1c-1.1,0.5-2.1,1.1-3.1,1.6c-4.1-2.3-8.5-4.2-13-5.8l6.7,9.8l24.3,35.7l4.5,6.6
					V59.9C123.8,59.9,123.6,60,123.4,60z"/>
			</g>
			<g>
				<path class="st1" d="M70.6,28.2c-3.4,7.2-5.6,15.1-6.4,23.3c-0.8,0.8-1.4,1.8-1.9,2.8c-0.4,1.1-0.7,2.4-0.9,4.1
					c-13.1,0.4-25.4,4.1-36,10.2v-0.8c0-8.8,4.8-17,12.7-21.4L70.6,28.2z"/>
			</g>
			<g>
				<path class="st1" d="M177.8,121.5v3.3c0,8.8-4.8,17-12.7,21.4L131,165.3c0.5-0.9,0.9-1.8,1.3-2.7c0.6-1.3,1.3-2.7,1.8-4.1
					c0.3-0.6,0.5-1.1,0.7-1.7c0-0.1,0.1-0.1,0.1-0.2c0.3-0.8,0.6-1.5,0.8-2.3c0.2-0.5,0.3-1,0.5-1.4c0.2-0.5,0.3-1,0.4-1.4
					c0-0.1,0.1-0.2,0.1-0.3c0.2-0.7,0.4-1.4,0.5-2.1c0.1-0.4,0.2-0.7,0.3-1.1c0.2-0.6,0.3-1.2,0.4-1.8c0.1-0.5,0.2-1,0.3-1.5
					c0.1-0.7,0.3-1.4,0.4-2.1c2.3-2,3.4-5.4,3.4-10v-0.7C155.1,131.3,167.3,127.6,177.8,121.5z"/>
			</g>
			<g>
				<path class="st1" d="M72.3,165.3l-34.1-19.2c-7.9-4.4-12.7-12.5-12.7-21.4v-3.3c10.6,6.1,22.8,9.8,35.9,10.2v2.2
					c0,3.5,0.8,6.2,2.5,8.1c0.3,0.3,0.6,0.6,1,0.9C66,150.8,68.6,158.4,72.3,165.3z"/>
			</g>
			<g>
				<path class="st1" d="M61.5,58.4c-0.1,1-0.2,2-0.2,3.2v70.1c-13.1-0.4-25.3-4.1-35.9-10.2V68.6C36,62.5,48.3,58.8,61.5,58.4z"/>
			</g>
			<g>
				<path class="st1" d="M61.5,58.4c-0.1,1-0.2,2-0.2,3.2v70.1c-13.1-0.4-25.3-4.1-35.9-10.2V68.6C36,62.5,48.3,58.8,61.5,58.4z"/>
			</g>
			<g>
				<path class="st1" d="M138.6,142.4c-0.1,0.7-0.2,1.4-0.4,2.1c-0.1,0.5-0.2,1-0.3,1.5c-0.1,0.6-0.3,1.2-0.4,1.8
					c-0.1,0.4-0.2,0.7-0.3,1.1c-0.2,0.7-0.4,1.4-0.5,2.1c-0.1,0.1-0.1,0.2-0.1,0.3c-0.1,0.5-0.3,1-0.4,1.4c-0.2,0.5-0.3,1-0.5,1.4
					c-0.3,0.8-0.5,1.6-0.8,2.3c0,0.1-0.1,0.1-0.1,0.2c-0.2,0.6-0.4,1.2-0.7,1.7c-0.5,1.4-1.2,2.8-1.8,4.1c-0.4,0.9-0.9,1.8-1.3,2.7
					l-16.7,9.4c-7.9,4.4-17.5,4.4-25.4,0l-16.7-9.4c-3.7-6.9-6.3-14.5-7.5-22.5c1.5,1.3,3.4,1.9,5.7,1.9c2.7,0,4.9-0.9,6.6-2.8
					c1.7-1.8,2.5-4.5,2.5-8.1v-3.7c7.9-1.6,15.3-4.4,22.1-8.2c2.4,1.3,4.8,2.5,7.3,3.6c0.8,0.4,1.7,0.7,2.5,1l4.7,7
					c1.1,1.5,2.1,2.9,3.1,4.4c1.1,1.4,2.2,2.7,3.4,3.7c1.2,1.1,2.5,1.9,4,2.3c1.4,0.5,3,0.7,4.7,0.7
					C134.5,144.7,136.9,143.9,138.6,142.4z"/>
			</g>
			<g>
				<path class="st1" d="M138.6,142.4c-0.1,0.7-0.2,1.4-0.4,2.1c-0.1,0.5-0.2,1-0.3,1.5c-0.1,0.6-0.3,1.2-0.4,1.8
					c-0.1,0.4-0.2,0.7-0.3,1.1c-0.2,0.7-0.4,1.4-0.5,2.1c-0.1,0.1-0.1,0.2-0.1,0.3c-0.1,0.5-0.3,1-0.4,1.4c-0.2,0.5-0.3,1-0.5,1.4
					c-0.3,0.8-0.5,1.6-0.8,2.3c0,0.1-0.1,0.1-0.1,0.2c-0.2,0.6-0.4,1.2-0.7,1.7c-0.5,1.4-1.2,2.8-1.8,4.1c-0.4,0.9-0.9,1.8-1.3,2.7
					l-16.7,9.4c-7.9,4.4-17.5,4.4-25.4,0l-16.7-9.4c-3.7-6.9-6.3-14.5-7.5-22.5c1.5,1.3,3.4,1.9,5.7,1.9c2.7,0,4.9-0.9,6.6-2.8
					c1.7-1.8,2.5-4.5,2.5-8.1v-3.7c7.9-1.6,15.3-4.4,22.1-8.2c2.4,1.3,4.8,2.5,7.3,3.6c0.8,0.4,1.7,0.7,2.5,1l4.7,7
					c1.1,1.5,2.1,2.9,3.1,4.4c1.1,1.4,2.2,2.7,3.4,3.7c1.2,1.1,2.5,1.9,4,2.3c1.4,0.5,3,0.7,4.7,0.7
					C134.5,144.7,136.9,143.9,138.6,142.4z"/>
			</g>
			<g>
				<path class="st1" d="M101.6,121.9c-6.7,3.8-14.2,6.6-22.1,8.2v-27C85.6,110.7,93.1,117.1,101.6,121.9z"/>
			</g>
			<g>
				<path class="st1" d="M101.6,121.9c-6.7,3.8-14.2,6.6-22.1,8.2v-27C85.6,110.7,93.1,117.1,101.6,121.9z"/>
			</g>
			<g>
				<path class="st1" d="M101.6,121.9c-6.7,3.8-14.2,6.6-22.1,8.2v-27C85.6,110.7,93.1,117.1,101.6,121.9z"/>
			</g>
			<g>
				<path class="st1" d="M177.8,67.7v0.8c-10.6-6.1-22.8-9.8-35.9-10.2c-0.1-3.5-0.8-6.1-2.4-7.9c-0.2-0.2-0.4-0.5-0.7-0.7
					c-0.1-0.8-0.2-1.6-0.3-2.4c0-0.3-0.1-0.5-0.1-0.8c-0.1-0.8-0.3-1.6-0.4-2.4c-0.2-0.8-0.4-1.7-0.5-2.5c-0.1-0.2-0.1-0.4-0.2-0.6
					c-0.2-0.8-0.4-1.6-0.6-2.3c-0.2-0.5-0.3-1-0.5-1.5c-0.2-0.6-0.3-1.1-0.5-1.6c-0.3-0.8-0.6-1.7-0.9-2.5c0-0.1-0.1-0.1-0.1-0.2
					c-0.2-0.6-0.5-1.2-0.7-1.9c-0.1-0.2-0.1-0.4-0.2-0.5c-0.3-0.7-0.6-1.4-1-2.2c0-0.1,0-0.1-0.1-0.1l32.5,18.2
					C173,50.8,177.8,58.9,177.8,67.7z"/>
			</g>
			<g>
				<path class="st1" d="M138.9,49.9c-1.5-1.4-3.5-2-5.9-2c-2.7,0-4.9,0.9-6.5,2.7c-1.6,1.8-2.4,4.5-2.4,8.2v1.2
					c-0.2,0.1-0.5,0.1-0.7,0.2c-0.6,0.1-1.2,0.2-1.7,0.4c-0.4,0.1-0.7,0.2-1.1,0.3c-0.7,0.2-1.3,0.3-2,0.5c-1.1,0.3-2.1,0.6-3.2,1
					c-0.7,0.2-1.4,0.5-2.1,0.7c-0.7,0.3-1.4,0.5-2.1,0.8c-0.5,0.2-0.9,0.3-1.4,0.5c-1,0.4-2,0.8-2.9,1.3c-0.7,0.3-1.4,0.6-2.1,1
					c-1.1,0.5-2.1,1.1-3.1,1.6c-4.1-2.3-8.5-4.2-13-5.8l-2.2-3.2c-1-1.6-2.1-3.2-3-4.7c-1-1.5-2-2.7-2.9-3.7c-0.9-0.9-2-1.7-3.3-2.2
					c-1.3-0.5-2.8-0.8-4.5-0.8c-2.2,0-4.3,0.6-6.3,1.8c-0.9,0.5-1.6,1.2-2.3,1.9c0.8-8.2,3-16.1,6.4-23.3l18.4-10.3
					c7.9-4.4,17.5-4.4,25.4,0l18.4,10.3c0,0.1,0.1,0.1,0.1,0.1c0.3,0.7,0.7,1.4,1,2.2c0.1,0.2,0.2,0.4,0.2,0.5
					c0.3,0.6,0.5,1.2,0.7,1.9c0,0.1,0.1,0.1,0.1,0.2c0.3,0.8,0.6,1.7,0.9,2.5c0.2,0.5,0.4,1.1,0.5,1.6c0.2,0.5,0.3,1,0.5,1.5
					c0.2,0.8,0.4,1.6,0.6,2.3c0.1,0.2,0.1,0.4,0.2,0.6c0.2,0.8,0.4,1.6,0.5,2.5c0.2,0.8,0.3,1.6,0.4,2.4c0.1,0.3,0.1,0.5,0.1,0.8
					C138.7,48.2,138.8,49,138.9,49.9z"/>
			</g>
			<g>
				<path class="st1" d="M138.9,49.9c-1.5-1.4-3.5-2-5.9-2c-2.7,0-4.9,0.9-6.5,2.7c-1.6,1.8-2.4,4.5-2.4,8.2v1.2
					c-0.2,0.1-0.5,0.1-0.7,0.2c-0.6,0.1-1.2,0.2-1.7,0.4c-0.4,0.1-0.7,0.2-1.1,0.3c-0.7,0.2-1.3,0.3-2,0.5c-1.1,0.3-2.1,0.6-3.2,1
					c-0.7,0.2-1.4,0.5-2.1,0.7c-0.7,0.3-1.4,0.5-2.1,0.8c-0.5,0.2-0.9,0.3-1.4,0.5c-1,0.4-2,0.8-2.9,1.3c-0.7,0.3-1.4,0.6-2.1,1
					c-1.1,0.5-2.1,1.1-3.1,1.6c-4.1-2.3-8.5-4.2-13-5.8l-2.2-3.2c-1-1.6-2.1-3.2-3-4.7c-1-1.5-2-2.7-2.9-3.7c-0.9-0.9-2-1.7-3.3-2.2
					c-1.3-0.5-2.8-0.8-4.5-0.8c-2.2,0-4.3,0.6-6.3,1.8c-0.9,0.5-1.6,1.2-2.3,1.9c0.8-8.2,3-16.1,6.4-23.3l18.4-10.3
					c7.9-4.4,17.5-4.4,25.4,0l18.4,10.3c0,0.1,0.1,0.1,0.1,0.1c0.3,0.7,0.7,1.4,1,2.2c0.1,0.2,0.2,0.4,0.2,0.5
					c0.3,0.6,0.5,1.2,0.7,1.9c0,0.1,0.1,0.1,0.1,0.2c0.3,0.8,0.6,1.7,0.9,2.5c0.2,0.5,0.4,1.1,0.5,1.6c0.2,0.5,0.3,1,0.5,1.5
					c0.2,0.8,0.4,1.6,0.6,2.3c0.1,0.2,0.1,0.4,0.2,0.6c0.2,0.8,0.4,1.6,0.5,2.5c0.2,0.8,0.3,1.6,0.4,2.4c0.1,0.3,0.1,0.5,0.1,0.8
					C138.7,48.2,138.8,49,138.9,49.9z"/>
			</g>
			<g>
				<path class="st1" d="M177.8,68.6v52.9c-10.6,6.1-22.8,9.8-35.9,10.2V58.4C155.1,58.8,167.3,62.5,177.8,68.6z"/>
			</g>
			<g>
				<path class="st1" d="M177.8,68.6v52.9c-10.6,6.1-22.8,9.8-35.9,10.2V58.4C155.1,58.8,167.3,62.5,177.8,68.6z"/>
			</g>
			<g>
				<path class="st1" d="M124,59.9v27.5c-2.1-2.7-4.3-5.2-6.8-7.5c-0.5-0.5-1-1-1.5-1.4c-0.2-0.2-0.5-0.5-0.7-0.6
					c-0.4-0.4-0.9-0.8-1.4-1.2c-0.3-0.2-0.5-0.4-0.7-0.6h0c-0.6-0.5-1.2-1-1.8-1.4c-0.1-0.1-0.2-0.2-0.4-0.3c-0.6-0.5-1.3-1-2-1.5
					c-0.3-0.2-0.6-0.4-0.9-0.6c-0.3-0.2-0.5-0.4-0.7-0.5c-0.7-0.5-1.5-1-2.2-1.4c0-0.1-0.1-0.1-0.1-0.1c-1-0.7-2.1-1.3-3.2-1.9
					c1-0.6,2-1.1,3.1-1.6c0.7-0.4,1.4-0.7,2.1-1c1-0.5,1.9-0.9,2.9-1.3c0.5-0.2,0.9-0.4,1.4-0.5c0.7-0.3,1.4-0.5,2.1-0.8
					c0.7-0.3,1.4-0.5,2.1-0.7c1.1-0.4,2.1-0.7,3.2-1c0.7-0.2,1.3-0.4,2-0.5c0.4-0.1,0.7-0.2,1.1-0.3c0.6-0.2,1.2-0.3,1.7-0.4
					C123.6,60,123.8,59.9,124,59.9z"/>
			</g>
			<g>
				<path class="st1" d="M124,59.9v27.5c-2.1-2.7-4.3-5.2-6.8-7.5c-0.5-0.5-1-1-1.5-1.4c-0.2-0.2-0.5-0.5-0.7-0.6
					c-0.4-0.4-0.9-0.8-1.4-1.2c-0.3-0.2-0.5-0.4-0.7-0.6h0c-0.6-0.5-1.2-1-1.8-1.4c-0.1-0.1-0.2-0.2-0.4-0.3c-0.6-0.5-1.3-1-2-1.5
					c-0.3-0.2-0.6-0.4-0.9-0.6c-0.3-0.2-0.5-0.4-0.7-0.5c-0.7-0.5-1.5-1-2.2-1.4c0-0.1-0.1-0.1-0.1-0.1c-1-0.7-2.1-1.3-3.2-1.9
					c1-0.6,2-1.1,3.1-1.6c0.7-0.4,1.4-0.7,2.1-1c1-0.5,1.9-0.9,2.9-1.3c0.5-0.2,0.9-0.4,1.4-0.5c0.7-0.3,1.4-0.5,2.1-0.8
					c0.7-0.3,1.4-0.5,2.1-0.7c1.1-0.4,2.1-0.7,3.2-1c0.7-0.2,1.3-0.4,2-0.5c0.4-0.1,0.7-0.2,1.1-0.3c0.6-0.2,1.2-0.3,1.7-0.4
					C123.6,60,123.8,59.9,124,59.9z"/>
			</g>
			<g>
				<path class="st1" d="M124,59.9v27.5c-2.1-2.7-4.3-5.2-6.8-7.5c-0.5-0.5-1-1-1.5-1.4c-0.2-0.2-0.5-0.5-0.7-0.6
					c-0.4-0.4-0.9-0.8-1.4-1.2c-0.3-0.2-0.5-0.4-0.7-0.6h0c-0.6-0.5-1.2-1-1.8-1.4c-0.1-0.1-0.2-0.2-0.4-0.3c-0.6-0.5-1.3-1-2-1.5
					c-0.3-0.2-0.6-0.4-0.9-0.6c-0.3-0.2-0.5-0.4-0.7-0.5c-0.7-0.5-1.5-1-2.2-1.4c0-0.1-0.1-0.1-0.1-0.1c-1-0.7-2.1-1.3-3.2-1.9
					c1-0.6,2-1.1,3.1-1.6c0.7-0.4,1.4-0.7,2.1-1c1-0.5,1.9-0.9,2.9-1.3c0.5-0.2,0.9-0.4,1.4-0.5c0.7-0.3,1.4-0.5,2.1-0.8
					c0.7-0.3,1.4-0.5,2.1-0.7c1.1-0.4,2.1-0.7,3.2-1c0.7-0.2,1.3-0.4,2-0.5c0.4-0.1,0.7-0.2,1.1-0.3c0.6-0.2,1.2-0.3,1.7-0.4
					C123.6,60,123.8,59.9,124,59.9z"/>
			</g>
			<g>
				<path class="st1" d="M82.6,83.4c-1.1,1.1-2,2.3-3,3.5v-8L82.6,83.4z"/>
			</g>
			<g>
				<path class="st1" d="M101.6,68.2c-2.2,1.2-4.3,2.6-6.3,4l-6.7-9.8C93.2,63.9,97.5,65.8,101.6,68.2z"/>
			</g>
			<g>
				<path class="st1" d="M82.6,83.4c-1.1,1.1-2,2.3-3,3.5v-8L82.6,83.4z"/>
			</g>
			<g>
				<path class="st1" d="M101.6,68.2c-2.2,1.2-4.3,2.6-6.3,4l-6.7-9.8C93.2,63.9,97.5,65.8,101.6,68.2z"/>
			</g>
			<g>
				<path class="st1" d="M82.6,83.4c-1.1,1.1-2,2.3-3,3.5v-8L82.6,83.4z"/>
			</g>
			<g>
				<path class="st1" d="M101.6,68.2c-2.2,1.2-4.3,2.6-6.3,4l-6.7-9.8C93.2,63.9,97.5,65.8,101.6,68.2z"/>
			</g>
			<g>
				<path class="st1" d="M111.5,126.5c-0.8-0.3-1.7-0.7-2.5-1c-2.5-1.1-5-2.3-7.3-3.6c0.6-0.4,1.3-0.7,1.9-1.1
					c0.2-0.1,0.4-0.2,0.6-0.4c0.8-0.5,1.6-1,2.4-1.5L111.5,126.5z"/>
			</g>
			<g>
				<path class="st1" d="M124,102.7v11.7l-4.5-6.6c0.6-0.6,1.2-1.3,1.7-1.9C122.3,104.9,123.2,103.8,124,102.7z"/>
			</g>
			<g>
				<path class="st1" d="M111.5,126.5c-0.8-0.3-1.7-0.7-2.5-1c-2.5-1.1-5-2.3-7.3-3.6c0.6-0.4,1.3-0.7,1.9-1.1
					c0.2-0.1,0.4-0.2,0.6-0.4c0.8-0.5,1.6-1,2.4-1.5L111.5,126.5z"/>
			</g>
			<g>
				<path class="st1" d="M124,102.7v11.7l-4.5-6.6c0.6-0.6,1.2-1.3,1.7-1.9C122.3,104.9,123.2,103.8,124,102.7z"/>
			</g>
			<g>
				<path class="st1" d="M111.5,126.5c-0.8-0.3-1.7-0.7-2.5-1c-2.5-1.1-5-2.3-7.3-3.6c0.6-0.4,1.3-0.7,1.9-1.1
					c0.2-0.1,0.4-0.2,0.6-0.4c0.8-0.5,1.6-1,2.4-1.5L111.5,126.5z"/>
			</g>
			<g>
				<path class="st1" d="M124,102.7v11.7l-4.5-6.6c0.6-0.6,1.2-1.3,1.7-1.9C122.3,104.9,123.2,103.8,124,102.7z"/>
			</g>
			<g>
				<path class="st1" d="M106.4,118.9c-0.8,0.5-1.5,1-2.4,1.5c-0.2,0.1-0.4,0.2-0.6,0.4c-0.6,0.4-1.2,0.7-1.9,1.1
					c-8.5-4.8-16-11.2-22.1-18.8V87c1-1.2,2-2.4,3-3.5L106.4,118.9z"/>
			</g>
			<g>
				<path class="st1" d="M124,87.4v15.3c-0.9,1.1-1.8,2.2-2.7,3.3c-0.5,0.6-1.1,1.3-1.7,1.9L95.3,72.2c2-1.4,4.1-2.8,6.3-4
					c1.1,0.6,2.1,1.2,3.2,1.9c0,0,0.1,0,0.1,0.1c0.7,0.4,1.5,0.9,2.2,1.4c0.3,0.2,0.5,0.3,0.7,0.5c0.3,0.2,0.6,0.4,0.9,0.6
					c0.7,0.5,1.3,1,2,1.5c0.1,0.1,0.3,0.2,0.4,0.3c0.6,0.4,1.2,0.9,1.8,1.4h0c0.3,0.2,0.5,0.4,0.7,0.6c0.5,0.4,0.9,0.8,1.4,1.2
					c0.2,0.2,0.5,0.4,0.7,0.6c0.5,0.5,1,1,1.5,1.4C119.7,82.2,121.9,84.7,124,87.4z"/>
			</g>
			<g>
				<path class="st1" d="M106.4,118.9c-0.8,0.5-1.5,1-2.4,1.5c-0.2,0.1-0.4,0.2-0.6,0.4c-0.6,0.4-1.2,0.7-1.9,1.1
					c-8.5-4.8-16-11.2-22.1-18.8V87c1-1.2,2-2.4,3-3.5L106.4,118.9z"/>
			</g>
			<g>
				<path class="st1" d="M124,87.4v15.3c-0.9,1.1-1.8,2.2-2.7,3.3c-0.5,0.6-1.1,1.3-1.7,1.9L95.3,72.2c2-1.4,4.1-2.8,6.3-4
					c1.1,0.6,2.1,1.2,3.2,1.9c0,0,0.1,0,0.1,0.1c0.7,0.4,1.5,0.9,2.2,1.4c0.3,0.2,0.5,0.3,0.7,0.5c0.3,0.2,0.6,0.4,0.9,0.6
					c0.7,0.5,1.3,1,2,1.5c0.1,0.1,0.3,0.2,0.4,0.3c0.6,0.4,1.2,0.9,1.8,1.4h0c0.3,0.2,0.5,0.4,0.7,0.6c0.5,0.4,0.9,0.8,1.4,1.2
					c0.2,0.2,0.5,0.4,0.7,0.6c0.5,0.5,1,1,1.5,1.4C119.7,82.2,121.9,84.7,124,87.4z"/>
			</g>
			<g>
				<path class="st1" d="M106.4,118.9c-0.8,0.5-1.5,1-2.4,1.5c-0.2,0.1-0.4,0.2-0.6,0.4c-0.6,0.4-1.2,0.7-1.9,1.1
					c-8.5-4.8-16-11.2-22.1-18.8V87c1-1.2,2-2.4,3-3.5L106.4,118.9z"/>
			</g>
			<g>
				<path class="st1" d="M124,87.4v15.3c-0.9,1.1-1.8,2.2-2.7,3.3c-0.5,0.6-1.1,1.3-1.7,1.9L95.3,72.2c2-1.4,4.1-2.8,6.3-4
					c1.1,0.6,2.1,1.2,3.2,1.9c0,0,0.1,0,0.1,0.1c0.7,0.4,1.5,0.9,2.2,1.4c0.3,0.2,0.5,0.3,0.7,0.5c0.3,0.2,0.6,0.4,0.9,0.6
					c0.7,0.5,1.3,1,2,1.5c0.1,0.1,0.3,0.2,0.4,0.3c0.6,0.4,1.2,0.9,1.8,1.4h0c0.3,0.2,0.5,0.4,0.7,0.6c0.5,0.4,0.9,0.8,1.4,1.2
					c0.2,0.2,0.5,0.4,0.7,0.6c0.5,0.5,1,1,1.5,1.4C119.7,82.2,121.9,84.7,124,87.4z"/>
			</g>
			<g>
				<path class="st1" d="M106.4,118.9c-0.8,0.5-1.5,1-2.4,1.5c-0.2,0.1-0.4,0.2-0.6,0.4c-0.6,0.4-1.2,0.7-1.9,1.1
					c-8.5-4.8-16-11.2-22.1-18.8V87c1-1.2,2-2.4,3-3.5L106.4,118.9z"/>
			</g>
			<g>
				<path class="st1" d="M124,87.4v15.3c-0.9,1.1-1.8,2.2-2.7,3.3c-0.5,0.6-1.1,1.3-1.7,1.9L95.3,72.2c2-1.4,4.1-2.8,6.3-4
					c1.1,0.6,2.1,1.2,3.2,1.9c0,0,0.1,0,0.1,0.1c0.7,0.4,1.5,0.9,2.2,1.4c0.3,0.2,0.5,0.3,0.7,0.5c0.3,0.2,0.6,0.4,0.9,0.6
					c0.7,0.5,1.3,1,2,1.5c0.1,0.1,0.3,0.2,0.4,0.3c0.6,0.4,1.2,0.9,1.8,1.4h0c0.3,0.2,0.5,0.4,0.7,0.6c0.5,0.4,0.9,0.8,1.4,1.2
					c0.2,0.2,0.5,0.4,0.7,0.6c0.5,0.5,1,1,1.5,1.4C119.7,82.2,121.9,84.7,124,87.4z"/>
			</g>
		</g>
	</g>
</g>
</svg>
